Coordinates
version=1
nRows=88
nColumns=8
inDegrees=yes

Units are S.I. units (second, meters, Newtons, ...)
If the header above contains a line with 'inDegrees', this indicates whether rotational values are in degrees (yes) or radians (no).

endheader
time	bJoint_3	bJoint_4	seatpos	hipangle	kneeangle	footangle	lbackangle
      3.94000000	     -0.00000000	     -0.00000025	     -0.64352507	     24.15595960	    143.36715455	     77.52311415	     11.45777981
      3.96000000	     -0.00000000	     -0.00000025	     -0.57228636	     27.94806850	    134.15792798	     72.10599648	     11.39684215
      3.98000000	     -0.00000000	     -0.00000025	     -0.52853594	     30.55126307	    128.31114386	     68.86240693	     11.45690915
      4.00000000	      0.00000000	     -0.00000025	     -0.48529179	     33.29567751	    122.36813478	     65.66381229	     11.39640719
      4.02000000	     -0.00000000	     -0.00000025	     -0.44154027	     36.23717005	    116.16337175	     62.40054180	     11.45654163
      4.04000000	     -0.00000000	     -0.00000025	     -0.39929531	     39.23774542	    109.95632765	     59.19407307	     11.39609436
      4.06000000	      0.00000000	     -0.00000025	     -0.35754432	     42.37006522	    103.57268576	     55.94275098	     11.45626949
      4.08000000	     -0.00000000	     -0.00000025	     -0.31729937	     45.56613539	     97.13570925	     52.70184464	     11.39580661
      4.10000000	      0.00000000	     -0.00000025	     -0.27927565	     48.77156787	     90.74093625	     49.51250412	      9.12225153
      4.12000000	     -0.00000000	     -0.00000025	     -0.24212560	     52.11262803	     84.12840076	     46.24102879	      6.80855458
      4.14000000	      0.00000000	     -0.00000025	     -0.20720328	     55.48595125	     77.49774155	     42.98369281	      4.58721472
      4.16000000	     -0.00000000	     -0.00000025	     -0.17504352	     58.84485015	     70.93471284	     39.77956299	      2.24307083
      4.18000000	      0.00000000	     -0.00000025	     -0.14497428	     62.27000481	     64.27793743	     36.54794225	     -0.08844195
      4.20000000	      0.00000000	     -0.00000025	     -0.11702439	     65.78459818	     57.48137850	     33.26597667	     -2.32637851
      4.22000000	      0.00000000	     -0.00000025	     -0.09203629	     69.30276187	     50.71005030	     30.01281217	     -4.63212507
      4.24000000	      0.00000000	     -0.00000025	     -0.07007530	     72.82157403	     43.96811333	     26.78968737	     -6.92870675
      4.26000000	      0.00000000	     -0.00000025	     -0.05112917	     76.35035096	     37.23704814	     23.58739910	     -9.21815798
      4.28000000	      0.00000000	     -0.00000025	     -0.03519356	     79.90241749	     30.49164648	     20.39406397	    -11.59086217
      4.30000000	      0.00000000	     -0.00000025	     -0.02227534	     83.49954387	     23.69175412	     17.19129799	    -13.87540382
      4.32000000	      0.00000000	     -0.00000025	     -0.01242353	     87.17519971	     16.77656185	     13.95176156	    -16.16675595
      4.34000000	      0.00000000	     -0.00000025	     -0.00674632	     90.26884468	     10.98328569	     11.25213037	    -18.56445330
      4.36000000	      0.00000000	     -0.00000025	     -0.00455970	     92.04612747	      7.66665465	      9.71278212	    -20.93717859
      4.38000000	      0.00000001	     -0.00000025	     -0.00395796	     92.69254811	      6.46250780	      9.15505591	    -23.18801875
      4.40000000	      0.00000001	     -0.00000025	     -0.00385116	     92.82038057	      6.22452062	      9.04490118	    -25.49504376
      4.42000000	      0.00000000	     -0.00000025	     -0.00396228	     92.68747684	      6.47194999	      9.15942683	    -27.77554706
      4.44000000	      0.00000001	     -0.00000025	     -0.00378416	     92.90314519	      6.07046116	      8.97360635	    -30.11580717
      4.46000000	      0.00000001	     -0.00000025	     -0.00395894	     92.69139589	      6.46465311	      9.15604899	    -32.37217656
      4.48000000	      0.00000001	     -0.00000025	     -0.00377234	     92.91796791	      6.04287192	      8.96083984	    -34.68153007
      4.50000000	      0.00000001	     -0.00000025	     -0.00391383	     92.74478856	      6.36524562	      9.11003418	    -37.00263420
      4.52000000	      0.00000001	     -0.00000025	     -0.00373657	     92.96323419	      5.95862253	      8.92185672	    -39.29844045
      4.54000000	      0.00000001	     -0.00000025	     -0.00382452	     92.85303901	      6.16372734	      9.01676636	    -40.20564060
      4.56000000	      0.00000001	     -0.00000025	     -0.00382452	     92.85304168	      6.16372237	      9.01676405	    -40.20564050
      4.58000000	      0.00000001	     -0.00000025	     -0.00382448	     92.85308663	      6.16363868	      9.01672531	    -40.20563799
      4.60000000	      0.00000001	     -0.00000025	     -0.00382455	     92.85300829	      6.16378453	      9.01679282	    -40.20564327
      4.62000000	      0.00000001	     -0.00000025	     -0.00382457	     92.85297820	      6.16384053	      9.01681874	    -40.20564240
      4.64000000	      0.00000001	     -0.00000025	     -0.00382448	     92.85308656	      6.16363884	      9.01672539	    -40.20564232
      4.66000000	      0.00000001	     -0.00000025	     -0.00382448	     92.85308809	      6.16363598	      9.01672407	    -40.20563901
      4.68000000	      0.00000001	     -0.00000025	     -0.00427334	     92.34003900	      7.11901468	      9.45905368	    -40.24034286
      4.70000000	      0.00000001	     -0.00000025	     -0.00427336	     92.34001180	      7.11906535	      9.45907715	    -40.24034197
      4.72000000	      0.00000001	     -0.00000025	     -0.00382450	     92.85306353	      6.16368171	      9.01674524	    -40.20563850
      4.74000000	      0.00000001	     -0.00000025	     -0.00382456	     92.85299600	      6.16380740	      9.01680340	    -40.20564456
      4.76000000	      0.00000001	     -0.00000025	     -0.00382452	     92.85304259	      6.16372068	      9.01676327	    -40.20563935
      4.78000000	      0.00000001	     -0.00000025	     -0.00382454	     92.85301278	      6.16377617	      9.01678895	    -40.20563850
      4.80000000	      0.00000001	     -0.00000025	     -0.00382474	     92.85276749	      6.16423271	      9.01700020	    -40.20565392
      4.82000000	      0.00000001	     -0.00000025	     -0.00382477	     92.85273820	      6.16428728	      9.01702548	    -40.20565308
      4.84000000	      0.00000001	     -0.00000025	     -0.00382459	     92.85295628	      6.16388133	      9.01683761	    -40.20564047
      4.86000000	      0.00000001	     -0.00000025	     -0.00382453	     92.85303322	      6.16373812	      9.01677134	    -40.20564107
      4.88000000	      0.00000001	     -0.00000025	     -0.00382452	     92.85303840	      6.16372848	      9.01676688	    -40.20564065
      4.90000000	      0.00000001	     -0.00000025	     -0.00382504	     92.85240050	      6.16491586	      9.01731636	    -40.20566261
      4.92000000	      0.00000001	     -0.00000025	     -0.00426559	     92.34830487	      7.10361649	      9.45192137	    -40.23973422
      4.94000000	      0.00000001	     -0.00000025	     -0.00387314	     92.79368235	      6.27422121	      9.06790356	    -39.42676751
      4.96000000	      0.00000001	     -0.00000025	     -0.00385076	     92.82087596	      6.22359842	      9.04447438	    -37.85946112
      4.98000000	      0.00000001	     -0.00000025	     -0.00369493	     93.01675571	      5.85901593	      8.87577164	    -36.28304751
      5.00000000	      0.00000001	     -0.00000025	     -0.00367375	     93.04433816	      5.80768660	      8.85202476	    -34.75443180
      5.02000000	      0.00000000	     -0.00000025	     -0.00442464	     92.18202937	      7.41340134	      9.59543071	    -33.15827607
      5.04000000	      0.00000000	     -0.00000025	     -0.00520017	     91.45505885	      8.76870450	     10.22376335	    -31.56165481
      5.06000000	      0.00000000	     -0.00000025	     -0.00746803	     89.79081129	     11.87681566	     11.66762695	    -30.00611974
      5.08000000	      0.00000000	     -0.00000025	     -0.01036021	     88.15870735	     14.93208495	     13.09079229	    -28.44631843
      5.10000000	      0.00000000	     -0.00000025	     -0.01323798	     86.81570487	     17.45138480	     14.26708968	    -26.80088831
      5.12000000	      0.00000000	     -0.00000025	     -0.01821688	     84.86637400	     21.11629469	     15.98266869	    -25.27047039
      5.14000000	      0.00000000	     -0.00000025	     -0.02312830	     83.23082249	     24.19864041	     17.42946290	    -23.64892252
      5.16000000	      0.00000000	     -0.00000025	     -0.02915800	     81.47199387	     27.52068717	     18.99268104	    -22.14047559
      5.18000000	      0.00000000	     -0.00000025	     -0.03609858	     79.68004456	     30.91304529	     20.59308985	    -20.53805039
      5.20000000	      0.00000000	     -0.00000025	     -0.04317141	     78.03647912	     34.03130690	     22.06778602	    -18.95912111
      5.22000000	      0.00000000	     -0.00000025	     -0.05211104	     76.15218251	     37.61426106	     23.76644356	    -17.45543310
      5.24000000	      0.00000000	     -0.00000025	     -0.06115730	     74.41124183	     40.93216812	     25.34340994	    -15.88134075
      5.26000000	      0.00000000	     -0.00000025	     -0.07013534	     72.81123691	     43.98787501	     26.79911192	    -14.30078820
      5.28000000	      0.00000000	     -0.00000025	     -0.08113691	     70.98820582	     47.47703207	     28.46523789	    -12.81233513
      5.30000000	      0.00000000	     -0.00000025	     -0.09212006	     69.29021274	     50.73414820	     30.02436095	    -11.23409742
      5.32000000	      0.00000000	     -0.00000025	     -0.10316907	     67.68264316	     53.82437679	     31.50701995	     -9.57593859
      5.34000000	      0.00000000	     -0.00000025	     -0.11604968	     65.91431598	     57.23115454	     33.14547052	     -8.06887704
      5.36000000	      0.00000000	     -0.00000025	     -0.12912214	     64.21729087	     60.50816994	     34.72546081	     -6.58412010
      5.38000000	      0.00000000	     -0.00000025	     -0.14217317	     62.60614602	     63.62645766	     36.23260368	     -4.91599620
      5.40000000	      0.00000000	     -0.00000025	     -0.15606816	     60.96909385	     66.80224062	     37.77133447	     -3.30940083
      5.42000000	      0.00000000	     -0.00000025	     -0.17104023	     59.28326895	     70.08071552	     39.36398447	     -1.79497395
      5.44000000	      0.00000000	     -0.00000025	     -0.18626543	     57.64123419	     73.28229552	     40.92352971	     -0.21746197
      5.46000000	      0.00000000	     -0.00000025	     -0.20224042	     55.98691971	     76.51652854	     42.50344825	      1.31316469
      5.48000000	      0.00000000	     -0.00000025	     -0.21897749	     54.32006529	     79.78467622	     44.10474151	      2.88621142
      5.50000000	      0.00000000	     -0.00000025	     -0.23591231	     52.69480643	     82.98098839	     45.67579482	      4.44400242
      5.52000000	      0.00000000	     -0.00000025	     -0.25309417	     51.10208950	     86.12332513	     47.22541463	      5.98051780
      5.54000000	      0.00000000	     -0.00000025	     -0.27104307	     49.49265413	     89.30956511	     48.80221924	      7.56337767
      5.56000000	     -0.00000000	     -0.00000025	     -0.28927561	     47.90923918	     92.45597319	     50.36521237	      9.12222685
      5.58000000	     -0.00000000	     -0.00000025	     -0.30803847	     46.32900620	     95.60874998	     51.93775618	     10.66982982
      5.60000000	     -0.00000000	     -0.00000025	     -0.32729900	     44.75439834	     98.76426206	     53.51866040	     11.39582821
      5.62000000	     -0.00000000	     -0.00000025	     -0.34629803	     43.24465987	    101.80435396	     55.04901383	     11.39590361
      5.64000000	     -0.00000000	     -0.00000025	     -0.36629718	     41.69875332	    104.93388460	     56.63263793	     11.39597621
      5.66000000	     -0.00000000	     -0.00000025	     -0.38629631	     40.19440002	    107.99755056	     58.19195058	     11.39604579
      5.68000000	     -0.00000000	     -0.00000025	     -0.40654198	     38.71141396	    111.03782651	     59.74924047	     11.45642830
